<?xml version="1.0"?>

<!DOCTYPE svg PUBLIC '-//W3C//DTD SVG 1.0//EN' 'http://www.w3.org/TR/2001/REC-SVG-20010904/DTD/svg10.dtd'>
<svg fill-opacity="1" xmlns:xlink="http://www.w3.org/1999/xlink" color-rendering="auto" color-interpolation="auto" text-rendering="auto" stroke="black" stroke-linecap="square" stroke-miterlimit="10" shape-rendering="auto" stroke-opacity="1" fill="black" stroke-dasharray="none" font-weight="normal" stroke-width="1" xmlns="http://www.w3.org/2000/svg" font-family="&apos;Dialog&apos;" font-style="normal" stroke-linejoin="miter" font-size="12" stroke-dashoffset="0" image-rendering="auto">
  <!--Unicode Character 'GLOBE WITH MERIDIANS' (U+1F310)-->
  <defs id="genericDefs" />
  <g>
    <g>
      <path d="M299.5312 283.2188 Q299.5312 342.8438 257.3438 385.0312 Q215.1562 427.2188 155.5312 427.2188 Q95.9062 427.2188 53.7188 385.0312 Q11.5312 342.8438 11.5312 283.2188 Q11.5312 223.5938 53.7188 181.4062 Q95.9062 139.2188 155.5312 139.2188 Q215.1562 139.2188 257.3438 181.4062 Q299.5312 223.5938 299.5312 283.2188 ZM247.2188 183.0938 Q220.9219 159.0469 186.6094 151.0312 Q203.0625 176.625 214.1719 205.4531 Q232.4531 196.0312 247.2188 183.0938 ZM291.375 279.1406 Q289.8281 226.6875 253.2656 188.8594 Q237.2344 203.0625 217.125 213.1875 Q229.3594 248.0625 230.2031 279.1406 L291.375 279.1406 ZM206.5781 208.9688 Q194.2031 176.3438 175.2188 148.7812 Q166.9219 147.5156 159.6094 147.375 L159.6094 220.9219 Q182.25 219.9375 206.5781 208.9688 ZM151.3125 220.9219 L151.3125 147.375 Q144.1406 147.5156 135.8438 148.7812 Q117 176.3438 104.4844 208.9688 Q128.8125 219.9375 151.3125 220.9219 ZM221.9062 279.1406 Q221.0625 250.0312 209.5312 216.8438 Q183.9375 228.2344 159.6094 229.2188 L159.6094 279.1406 L221.9062 279.1406 ZM291.375 287.4375 L230.2031 287.4375 Q229.3594 318.375 217.125 353.25 Q237.2344 363.5156 253.2656 377.5781 Q289.8281 339.8906 291.375 287.4375 ZM124.4531 151.0312 Q90.1406 159.0469 63.8438 183.0938 Q78.6094 196.0312 96.8906 205.4531 Q108 176.7656 124.4531 151.0312 ZM151.3125 279.1406 L151.3125 229.2188 Q127.125 228.2344 101.5312 216.8438 Q90 250.0312 89.1562 279.1406 L151.3125 279.1406 ZM221.9062 287.4375 L159.6094 287.4375 L159.6094 337.2188 Q183.9375 338.2031 209.5312 349.5938 Q221.0625 316.4062 221.9062 287.4375 ZM247.2188 383.3438 Q232.4531 370.4062 214.1719 360.9844 Q203.0625 389.6719 186.6094 415.4062 Q220.9219 407.3906 247.2188 383.3438 ZM93.9375 213.1875 Q73.8281 202.9219 57.7969 188.8594 Q21.2344 226.5469 19.6875 279.1406 L80.8594 279.1406 Q81.7031 248.0625 93.9375 213.1875 ZM151.3125 337.2188 L151.3125 287.4375 L89.1562 287.4375 Q90 316.4062 101.5312 349.5938 Q127.125 338.2031 151.3125 337.2188 ZM206.5781 357.4688 Q182.25 346.5 159.6094 345.5156 L159.6094 419.0625 Q166.9219 418.9219 175.2188 417.6562 Q194.0625 390.0938 206.5781 357.4688 ZM151.3125 419.0625 L151.3125 345.5156 Q128.8125 346.5 104.4844 357.4688 Q116.8594 390.0938 135.8438 417.6562 Q144.1406 418.9219 151.3125 419.0625 ZM93.9375 353.25 Q81.7031 318.375 80.8594 287.4375 L19.6875 287.4375 Q21.2344 339.75 57.7969 377.5781 Q73.8281 363.5156 93.9375 353.25 ZM124.4531 415.4062 Q108 389.6719 96.8906 360.9844 Q78.6094 370.4062 63.8438 383.3438 Q90.1406 407.3906 124.4531 415.4062 Z" stroke="none" />
    </g>
  </g>
</svg>
